<?xml version="1.0" standalone="no"?>
<!DOCTYPE svg PUBLIC "-//W3C//DTD SVG 20010904//EN"
 "http://www.w3.org/TR/2001/REC-SVG-20010904/DTD/svg10.dtd">
<svg version="1.0" xmlns="http://www.w3.org/2000/svg"
 width="1920.000000pt" height="1920.000000pt" viewBox="0 0 1920.000000 1920.000000"
 preserveAspectRatio="xMidYMid meet">

<g transform="translate(0.000000,1920.000000) scale(0.100000,-0.100000)"
fill="#000000" stroke="none">
<path d="M2600 14423 c-628 -28 -1282 -302 -1803 -753 -366 -317 -638 -697
-757 -1058 l-40 -123 0 -272 c0 -244 2 -282 21 -353 66 -253 220 -470 416
-587 150 -90 293 -126 526 -134 140 -5 158 -8 153 -22 -3 -9 -25 -65 -50 -126
-56 -138 -111 -326 -138 -475 -17 -94 -21 -157 -22 -345 -1 -283 10 -357 104
-729 187 -741 477 -1333 1011 -2066 280 -385 351 -511 370 -662 33 -264 -95
-705 -353 -1223 -103 -205 -258 -479 -348 -615 -88 -132 -34 -75 109 115 541
719 806 1402 727 1874 -24 140 -41 184 -157 410 -56 108 -141 273 -190 366
-208 403 -332 744 -395 1090 -24 133 -30 471 -10 602 46 305 174 440 383 403
165 -28 285 -136 383 -341 43 -91 46 -74 8 56 -55 194 -158 344 -277 404 -23
12 -41 25 -41 29 0 4 141 49 313 101 171 52 443 135 602 183 160 49 477 144
705 213 767 229 778 232 825 201 70 -46 84 -112 95 -446 9 -296 17 -343 70
-458 38 -82 124 -168 210 -210 100 -49 186 -66 336 -66 l130 -1 75 37 c139 69
233 189 359 461 68 147 94 187 120 187 23 0 54 -40 237 -315 168 -252 193
-294 193 -326 0 -34 -43 -113 -152 -285 -53 -82 -102 -169 -108 -194 -21 -76
-4 -164 56 -295 2 -6 -23 -11 -66 -12 -138 -3 -227 -46 -299 -144 -64 -88
-185 -195 -296 -264 l-97 -60 54 -47 c159 -142 324 -235 476 -267 151 -33 174
-53 192 -161 24 -154 5 -311 -50 -424 -77 -155 -213 -253 -460 -328 -66 -20
-96 -23 -240 -22 -184 0 -280 17 -539 95 -366 109 -948 370 -1450 649 -80 44
-146 78 -148 76 -4 -4 208 -151 327 -228 313 -200 785 -435 1105 -549 66 -23
123 -45 127 -48 4 -3 -23 -73 -59 -156 -111 -255 -203 -487 -223 -564 -28
-104 -26 -204 3 -256 82 -145 419 -149 1187 -15 442 77 865 88 1322 35 490
-57 1094 -211 1549 -396 68 -27 125 -47 127 -44 3 2 0 28 -6 57 -56 278 -296
465 -708 552 -201 42 -369 58 -673 63 -463 9 -828 -20 -1771 -137 -620 -77
-791 -86 -852 -46 -89 58 -80 270 22 528 54 135 160 348 174 348 6 0 63 -13
127 -29 166 -42 307 -61 457 -61 321 0 563 98 676 275 76 117 91 209 74 442
-14 189 -8 237 46 370 53 129 48 200 -21 305 l-26 39 20 37 c39 68 56 148 51
238 -4 79 -7 87 -55 166 -61 101 -73 135 -73 204 0 55 43 191 79 250 17 28 27
32 94 43 209 34 378 186 508 456 155 323 195 728 88 885 -80 117 -214 145
-484 100 -66 -11 -127 -20 -135 -20 -9 0 -28 24 -44 58 -35 72 -141 234 -217
332 -32 41 -112 172 -179 289 -67 118 -151 260 -187 315 -199 306 -464 573
-760 763 -49 32 -130 88 -179 126 -109 82 -335 197 -459 232 -49 14 -135 31
-189 38 l-99 12 6 106 c17 299 -46 646 -160 874 -181 363 -468 564 -910 640
-80 13 -371 38 -398 33 -5 -1 -39 -3 -75 -5z m225 -502 c221 -33 373 -79 555
-171 351 -176 574 -501 597 -869 l6 -94 -74 7 c-69 6 -304 -5 -411 -20 l-47
-7 -60 125 c-158 330 -395 588 -664 725 -311 157 -719 172 -1112 41 -461 -154
-784 -585 -835 -1114 -22 -231 25 -460 132 -642 18 -31 69 -93 114 -138 65
-65 98 -89 175 -127 52 -25 111 -49 132 -53 20 -3 39 -10 42 -14 3 -5 -14 -37
-38 -72 -24 -35 -68 -103 -98 -153 -29 -49 -55 -92 -56 -94 -5 -7 -155 113
-235 187 -331 312 -497 697 -458 1061 18 172 51 288 129 455 124 267 366 524
647 687 438 254 1022 359 1559 280z m-801 -356 c316 -55 588 -263 742 -568 45
-88 102 -259 106 -315 l3 -43 -130 -49 c-71 -26 -152 -57 -178 -69 -27 -12
-50 -21 -51 -21 -1 0 0 58 2 129 7 220 -36 351 -157 472 -117 117 -235 159
-471 166 -167 5 -241 -5 -355 -48 -80 -30 -166 -114 -184 -181 -26 -94 13
-193 92 -229 62 -28 85 -24 192 31 112 57 161 63 231 29 155 -75 209 -313 109
-483 -67 -114 -214 -206 -341 -214 -258 -16 -526 246 -590 576 -61 316 89 584
409 732 195 90 382 118 571 85z m2668 -1120 c228 -45 653 -309 858 -532 152
-166 245 -300 445 -643 60 -102 127 -216 150 -255 100 -168 215 -408 203 -421
-2 -2 -62 -11 -133 -20 -202 -26 -292 -8 -566 114 -315 139 -521 179 -879 169
-127 -4 -238 -13 -320 -27 -438 -73 -1003 -264 -1741 -586 -119 -52 -220 -94
-225 -94 -5 0 16 17 46 37 198 132 352 299 443 478 47 94 64 156 87 313 54
372 273 770 592 1078 336 323 694 457 1040 389z"/>
<path d="M11261 11760 c-211 -51 -434 -222 -620 -473 -70 -95 -168 -252 -215
-344 -14 -29 -28 -53 -30 -53 -2 0 -16 39 -31 88 -68 220 -181 387 -352 523
-330 262 -775 306 -1173 116 -132 -63 -289 -176 -386 -278 -220 -230 -357
-533 -404 -894 -15 -116 -15 -386 0 -495 47 -344 199 -608 406 -707 157 -75
326 -61 521 42 213 113 406 321 527 568 105 216 149 405 149 642 0 143 -3 169
-26 246 -58 191 -101 258 -197 303 -55 26 -77 30 -145 31 -70 0 -89 -4 -149
-32 -46 -23 -66 -37 -63 -47 22 -56 59 -268 65 -369 28 -445 -95 -836 -320
-1020 -83 -68 -233 -86 -326 -38 -63 32 -143 121 -184 203 -229 464 -46 1141
407 1505 164 132 288 181 476 190 140 7 223 -9 344 -67 99 -48 170 -110 228
-198 85 -131 130 -272 149 -468 15 -162 2 -295 -61 -604 -209 -1032 -256
-1510 -165 -1684 62 -119 109 -150 229 -149 100 1 175 32 243 100 60 60 60 51
17 173 -46 130 -46 338 1 660 36 251 225 1211 254 1294 87 246 232 468 395
606 71 61 179 116 256 132 49 10 60 9 95 -8 48 -23 74 -71 74 -136 0 -26 -20
-138 -45 -247 -201 -892 -295 -1467 -295 -1810 0 -153 11 -215 53 -294 38 -74
87 -114 146 -124 126 -20 227 11 313 97 l57 57 -27 64 c-26 62 -27 70 -27 259
0 215 14 356 71 697 64 390 169 621 387 850 131 137 265 214 374 215 63 1 99
-20 119 -67 22 -53 17 -107 -26 -301 -113 -497 -224 -1098 -262 -1409 -28
-237 -31 -524 -6 -606 27 -85 74 -150 132 -178 118 -59 315 -4 396 109 l21 30
-32 92 c-28 81 -33 110 -37 224 -9 255 21 454 189 1269 153 741 166 838 135
990 -33 160 -119 292 -218 335 -103 45 -279 25 -423 -48 -181 -91 -376 -275
-518 -489 -22 -34 -42 -61 -43 -60 -1 1 14 79 32 172 62 304 56 475 -21 631
-85 173 -229 235 -434 184z"/>
<path d="M17467 11479 c-83 -20 -142 -72 -171 -150 -22 -61 -43 -232 -57 -457
-11 -175 -11 -193 5 -217 22 -33 53 -45 131 -48 102 -3 105 0 189 258 40 121
90 266 110 323 43 116 45 167 6 221 -40 58 -136 89 -213 70z"/>
<path d="M14339 11467 c-118 -44 -138 -87 -229 -502 -28 -126 -91 -403 -140
-615 -135 -586 -183 -833 -210 -1090 -9 -85 -17 -115 -41 -156 -61 -108 -150
-174 -233 -174 -63 0 -78 25 -78 124 1 92 16 177 92 506 66 285 148 703 157
796 18 190 -89 273 -298 234 -73 -14 -123 -50 -153 -108 -52 -103 -197 -741
-237 -1047 -49 -374 -24 -618 78 -752 58 -76 176 -123 309 -123 160 0 275 44
374 141 l58 57 32 -49 c62 -96 151 -139 302 -147 175 -9 296 32 410 139 34 32
63 57 63 56 51 -89 92 -128 170 -163 49 -23 78 -28 161 -32 184 -8 304 36 426
155 l56 56 20 -40 c30 -58 79 -102 152 -136 56 -27 79 -32 164 -35 135 -6 245
21 330 81 27 19 28 19 23 1 -3 -10 -9 -36 -13 -58 -6 -35 -11 -40 -63 -63
-274 -119 -418 -214 -496 -328 -57 -83 -76 -150 -82 -277 -5 -96 -3 -116 20
-190 67 -213 193 -294 415 -268 307 37 470 197 598 586 38 117 91 344 108 464
6 44 9 46 79 84 210 114 440 309 515 438 84 142 150 354 192 608 27 166 26
204 -2 224 -12 9 -35 16 -51 16 -55 0 -64 -12 -92 -137 -64 -279 -131 -480
-199 -591 -57 -94 -232 -251 -359 -322 l-38 -22 6 24 c3 12 46 223 96 468 243
1196 238 1164 199 1227 -34 57 -63 68 -170 67 -169 -2 -251 -54 -294 -186 -8
-26 -60 -266 -116 -535 -59 -286 -114 -523 -132 -573 -89 -248 -203 -376 -326
-368 -65 4 -75 25 -68 148 5 99 27 219 95 505 36 153 95 441 136 664 33 182
12 282 -70 325 -57 30 -212 29 -270 -1 -93 -49 -107 -79 -189 -414 -96 -391
-134 -597 -160 -876 -14 -152 -27 -184 -105 -266 -72 -77 -187 -112 -212 -66
-28 52 -6 220 82 644 28 132 77 373 109 535 53 262 141 668 214 985 47 200 29
302 -58 344 -49 24 -188 29 -247 10 -46 -16 -97 -55 -120 -93 -25 -40 -60
-159 -94 -316 -15 -69 -74 -330 -132 -580 -162 -706 -205 -925 -237 -1209 -14
-122 -15 -125 -61 -192 -65 -95 -142 -149 -213 -149 -87 0 -81 100 33 656 36
171 87 423 114 560 58 288 145 691 198 909 58 241 50 339 -30 399 -24 18 -45
21 -130 24 -66 1 -115 -3 -138 -11z m1675 -3279 c-59 -273 -104 -399 -158
-444 -26 -23 -37 -26 -83 -22 -86 7 -123 59 -123 169 0 101 50 196 142 266 51
39 225 143 239 143 4 0 -4 -51 -17 -112z"/>
<path d="M13414 11332 c-28 -10 -63 -28 -79 -41 -43 -33 -90 -104 -105 -156
-35 -127 41 -284 169 -347 94 -47 239 -22 319 55 92 88 113 199 60 307 -74
151 -231 230 -364 182z"/>
<path d="M18400 10590 c-138 -22 -270 -91 -361 -188 -95 -101 -139 -209 -139
-341 1 -210 65 -328 334 -621 70 -75 108 -126 137 -184 30 -60 37 -82 27 -87
-28 -15 -198 -48 -298 -59 -284 -29 -331 -42 -370 -106 -46 -74 -26 -159 61
-258 59 -66 131 -110 241 -148 83 -27 109 -31 243 -35 139 -5 156 -3 227 20
176 56 322 175 393 321 35 70 40 88 43 172 l4 95 67 38 c36 22 94 65 129 96
l62 57 0 151 0 152 -30 -63 c-38 -80 -125 -169 -202 -205 -31 -15 -61 -27 -65
-27 -5 0 -21 24 -35 53 -36 74 -131 190 -221 270 -187 168 -287 347 -287 516
1 113 43 176 128 191 102 17 159 -25 230 -169 72 -146 122 -182 227 -167 74
12 145 92 145 164 0 136 -170 294 -375 347 -73 19 -240 27 -315 15z m40 -1625
c0 -58 -69 -156 -127 -181 -43 -19 -157 -18 -223 2 -51 15 -120 68 -120 92 0
5 34 12 76 15 94 8 260 42 328 67 64 23 66 23 66 5z"/>
<path d="M9064 7280 c-146 -29 -252 -149 -285 -324 -15 -83 -11 -769 6 -849
37 -175 154 -291 307 -305 l58 -5 0 96 c0 95 -1 97 -25 103 -39 10 -82 66 -95
126 -8 37 -10 174 -8 448 3 394 3 395 27 444 18 37 33 53 62 65 l39 16 0 98
c0 109 5 105 -86 87z"/>
<path d="M9190 7191 c0 -81 3 -101 14 -101 8 0 28 -12 45 -26 44 -37 61 -104
61 -241 l0 -113 126 0 127 0 -6 133 c-8 208 -51 310 -161 384 -48 33 -87 47
-163 59 l-43 7 0 -102z"/>
<path d="M10135 7276 c-73 -18 -125 -48 -172 -99 -53 -57 -70 -90 -94 -184
-17 -69 -19 -112 -19 -447 0 -413 6 -463 61 -567 18 -33 48 -74 68 -91 49 -43
130 -78 196 -85 l55 -6 0 96 c0 87 -2 96 -20 102 -42 13 -80 56 -95 108 -22
75 -22 799 0 874 15 52 70 113 100 113 12 0 15 19 15 100 0 114 4 110 -95 86z"/>
<path d="M10280 7190 c0 -81 3 -100 15 -100 30 0 85 -61 100 -113 22 -75 22
-799 0 -874 -15 -52 -53 -95 -95 -108 -18 -6 -20 -15 -20 -102 l0 -96 55 6
c113 12 218 84 270 186 50 100 55 146 55 547 0 204 -4 393 -9 420 -34 178
-135 290 -289 323 -87 18 -82 23 -82 -89z"/>
<path d="M13754 7280 c-146 -29 -252 -149 -285 -324 -15 -83 -11 -769 6 -849
37 -175 154 -291 307 -305 l58 -5 0 96 c0 95 -1 97 -25 103 -39 10 -82 66 -95
126 -8 37 -10 174 -8 448 3 394 3 395 27 444 18 37 33 53 62 65 l39 16 0 98
c0 109 5 105 -86 87z"/>
<path d="M13880 7191 c0 -81 3 -101 14 -101 8 0 28 -12 45 -26 44 -37 61 -104
61 -241 l0 -113 126 0 127 0 -6 133 c-8 208 -51 310 -161 384 -48 33 -87 47
-163 59 l-43 7 0 -102z"/>
<path d="M16255 7276 c-73 -18 -125 -48 -172 -99 -53 -57 -70 -90 -94 -184
-17 -69 -19 -112 -19 -447 0 -413 6 -463 61 -567 18 -33 48 -74 68 -91 49 -43
130 -78 196 -85 l55 -6 0 96 c0 87 -2 96 -20 102 -42 13 -80 56 -95 108 -22
75 -22 799 0 874 15 52 70 113 100 113 12 0 15 19 15 100 0 114 4 110 -95 86z"/>
<path d="M16400 7190 c0 -81 3 -100 15 -100 30 0 85 -61 100 -113 22 -75 22
-799 0 -874 -15 -52 -53 -95 -95 -108 -18 -6 -20 -15 -20 -102 l0 -96 55 6
c113 12 218 84 270 186 50 100 55 146 55 547 0 204 -4 393 -9 420 -34 178
-135 290 -289 323 -87 18 -82 23 -82 -89z"/>
<path d="M18413 7275 c-192 -52 -295 -212 -264 -411 16 -104 54 -167 165 -277
l100 -98 85 85 85 85 -81 85 c-66 68 -85 94 -97 137 -20 66 -20 89 0 138 16
40 50 71 79 71 12 0 15 17 15 100 0 113 4 109 -87 85z"/>
<path d="M18540 7193 c0 -96 1 -100 25 -111 33 -15 64 -80 72 -152 7 -70 -4
-67 147 -44 l108 17 -4 61 c-5 74 -41 157 -93 215 -44 48 -141 98 -207 107
l-48 7 0 -100z"/>
<path d="M10970 6540 l0 -720 125 0 125 0 0 720 0 720 -125 0 -125 0 0 -720z"/>
<path d="M11800 6540 l0 -720 125 0 125 0 0 720 0 720 -125 0 -125 0 0 -720z"/>
<path d="M12630 6540 l0 -720 125 0 125 0 0 720 0 720 -125 0 -125 0 0 -720z"/>
<path d="M12920 7175 l0 -85 140 0 140 0 0 85 0 85 -140 0 -140 0 0 -85z"/>
<path d="M14470 7165 l0 -95 350 0 350 0 0 95 0 95 -350 0 -350 0 0 -95z"/>
<path d="M15400 6540 l0 -720 130 0 130 0 0 720 0 720 -130 0 -130 0 0 -720z"/>
<path d="M17090 6540 l0 -720 105 0 105 0 0 684 c0 588 -2 689 -15 720 l-15
36 -90 0 -90 0 0 -720z"/>
<path d="M17640 6586 c0 -648 1 -676 20 -720 l19 -46 86 0 85 0 0 720 0 720
-105 0 -105 0 0 -674z"/>
<path d="M17350 6822 l0 -241 125 -283 125 -283 0 254 0 254 -122 266 c-66
146 -123 268 -125 270 -1 2 -3 -104 -3 -237z"/>
<path d="M14690 6425 l0 -605 130 0 130 0 0 605 0 605 -130 0 -130 0 0 -605z"/>
<path d="M12920 6570 l0 -90 95 0 95 0 0 90 0 90 -95 0 -95 0 0 -90z"/>
<path d="M18530 6545 l-84 -85 67 -67 c90 -91 137 -181 137 -267 0 -76 -25
-124 -70 -133 l-31 -6 3 -96 3 -96 40 4 c109 9 222 88 271 186 50 104 43 242
-20 370 -37 75 -139 202 -198 247 l-35 27 -83 -84z"/>
<path d="M9308 6248 c-5 -166 -22 -216 -83 -245 l-35 -17 0 -94 0 -95 56 6
c200 21 314 199 314 493 l0 94 -124 0 -124 0 -4 -142z"/>
<path d="M13998 6248 c-5 -166 -22 -216 -83 -245 l-35 -17 0 -94 0 -95 56 6
c200 21 314 199 314 493 l0 94 -124 0 -124 0 -4 -142z"/>
<path d="M18260 6243 c-63 -13 -116 -26 -118 -27 -1 -2 5 -39 13 -82 39 -186
146 -303 303 -332 l52 -9 0 94 0 94 -39 37 c-44 42 -60 85 -68 185 -3 40 -10
67 -17 66 -6 0 -63 -12 -126 -26z"/>
<path d="M11260 5910 l0 -90 135 0 135 0 0 90 0 90 -135 0 -135 0 0 -90z"/>
<path d="M12090 5910 l0 -90 135 0 135 0 0 90 0 90 -135 0 -135 0 0 -90z"/>
<path d="M12920 5910 l0 -90 140 0 140 0 0 90 0 90 -140 0 -140 0 0 -90z"/>
</g>
</svg>
